<svg viewBox="0 0 511.99821 511" xmlns="http://www.w3.org/2000/svg"><path d="m435.742188 76.742188c-66.8125-66.808594-153.007813-70.28125-188.78125-68.402344-9.953126.523437-18.625 6.945312-21.984376 16.332031l-124.21875 347.234375c-4.058593 11.339844-1.214843 24 7.300782 32.515625s21.179687 11.359375 32.519531 7.304687l347.234375-124.222656c9.382812-3.359375 15.804688-12.027344 16.332031-21.980468 1.878907-35.773438-1.59375-121.972657-68.402343-188.78125zm0 0" fill="#f5b96e"/><path d="m125.757812 396.910156 124.222657-347.234375c3.359375-9.386719 12.027343-15.808593 21.984375-16.332031 33.492187-1.761719 111.1875 1.175781 175.789062 56.386719-3.757812-4.394531-7.753906-8.730469-12.011718-12.988281-66.8125-66.8125-153.007813-70.28125-188.78125-68.402344-9.953126.523437-18.625 6.945312-21.984376 16.332031l-124.21875 347.234375c-4.058593 11.339844-1.214843 24 7.300782 32.515625 4.5625 4.558594 10.3125 7.476563 16.410156 8.59375-.96875-5.289063-.59375-10.839844 1.289062-16.105469zm0 0" fill="#e8af68"/><path d="m393.539062 118.941406c-25.578124-25.574218-67.046874-25.574218-92.625 0-25.574218 25.578125-25.574218 67.046875 0 92.625 25.578126 25.574219 67.046876 25.574219 92.625 0 25.574219-25.578125 25.574219-67.046875 0-92.625zm0 0" fill="#e3637b"/><path d="m324.734375 142.757812c21.460937-21.457031 54.101563-24.902343 79.164063-10.355468-2.792969-4.808594-6.238282-9.34375-10.355469-13.460938-25.578125-25.578125-67.046875-25.578125-92.625 0-25.574219 25.578125-25.574219 67.046875 0 92.621094 4.121093 4.121094 8.652343 7.566406 13.460937 10.355469-14.546875-25.058594-11.101562-57.699219 10.355469-79.160157zm0 0" fill="#d75e74"/><path d="m340.921875 73.835938c-17.835937-17.832032-45.523437-19.777344-65.523437-5.867188-2.457032-5.199219-5.828126-10.078125-10.128907-14.378906-20.035156-20.035156-52.519531-20.035156-72.558593 0-20.035157 20.039062-20.035157 52.523437 0 72.5625 17.835937 17.832031 45.523437 19.777344 65.523437 5.867187 2.457031 5.199219 5.828125 10.078125 10.128906 14.378907 20.035157 20.035156 52.519531 20.035156 72.558594 0 20.035156-20.039063 20.035156-52.523438 0-72.5625zm0 0" fill="#f9efd1"/><path d="m458.65625 246.976562c-4.300781-4.304687-9.179688-7.671874-14.378906-10.128906 13.910156-20 11.964844-47.6875-5.867188-65.523437-20.039062-20.035157-52.523437-20.035157-72.558594 0-20.039062 20.035156-20.039062 52.523437 0 72.558593 4.300782 4.300782 9.175782 7.671876 14.375 10.125-13.910156 20.003907-11.964843 47.691407 5.871094 65.527344 20.035156 20.035156 52.519532 20.035156 72.558594 0 20.035156-20.039062 20.035156-52.523437 0-72.558594zm0 0" fill="#f9efd1"/><path d="m361.113281 151.367188c-66.808593-66.808594-153.003906-70.28125-188.777343-68.402344-9.953126.523437-18.625 6.949218-21.984376 16.332031l-124.21875 347.234375c-4.058593 11.339844-1.214843 24.003906 7.300782 32.519531s21.175781 11.359375 32.515625 7.300781l347.238281-124.222656c9.382812-3.355468 15.804688-12.027344 16.328125-21.980468 1.878906-35.773438-1.589844-121.96875-68.402344-188.78125zm0 0" fill="#f5b96e"/><path d="m51.132812 471.535156 124.222657-347.234375c3.359375-9.386719 12.027343-15.808593 21.984375-16.332031 33.492187-1.761719 111.1875 1.171875 175.789062 56.390625-3.757812-4.398437-7.757812-8.734375-12.011718-12.992187-66.8125-66.8125-153.007813-70.28125-188.78125-68.402344-9.953126.523437-18.625 6.945312-21.984376 16.332031l-124.21875 347.234375c-4.058593 11.339844-1.214843 24 7.300782 32.515625 4.5625 4.5625 10.3125 7.476563 16.410156 8.59375-.972656-5.289063-.59375-10.839844 1.289062-16.105469zm0 0" fill="#e8af68"/><path d="m21.527344 490.957031c-13.054688-13.050781-17.472656-32.714843-11.253906-50.097656l111.003906-310.285156c2.433594-6.800781 8.933594-11.292969 16.15625-11.167969 41.199218.730469 119.628906 11.261719 182.003906 73.636719s72.910156 140.808593 73.636719 182.007812c.128906 7.222657-4.363281 13.722657-11.164063 16.15625l-310.289062 111c-17.378906 6.21875-37.042969 1.804688-50.09375-11.25zm0 0" fill="#c2e3ee"/><path d="m35.277344 465.863281 111.003906-310.285156c2.433594-6.800781 8.933594-11.292969 16.152344-11.167969 38.394531.679688 109.113281 9.878906 169.042968 61.597656-3.78125-4.382812-7.785156-8.710937-12.039062-12.964843-62.375-62.375-140.804688-72.90625-182.003906-73.636719-7.222656-.125-13.722656 4.367188-16.15625 11.167969l-111.003906 310.285156c-6.214844 17.378906-1.800782 37.046875 11.253906 50.097656 4.347656 4.347657 9.441406 7.714844 14.929687 10.070313-4.71875-10.980469-5.324219-23.574219-1.179687-35.164063zm0 0" fill="#add9e8"/><path d="m212.621094 451.765625-151.902344-151.90625-30.15625 84.289063 97.773438 97.769531zm0 0" fill="#e3637b"/><path d="m60.71875 299.859375-30.15625 84.289063 25.003906 25 30.152344-84.285157zm0 0" fill="#d75e74"/><path d="m231.160156 281.324219c-6.71875-6.71875-6.71875-17.605469 0-24.324219l9.121094-9.121094 24.320312 24.324219-9.121093 9.121094c-6.714844 6.714843-17.605469 6.714843-24.320313 0zm0 0" fill="#4a5359"/><path d="m285.734375 332.351562c-1.921875 0-3.839844-.734374-5.304687-2.199218l-8.03125-8.03125c-2.925782-2.925782-2.925782-7.675782 0-10.605469 2.929687-2.925781 7.679687-2.925781 10.605468.003906l8.03125 8.027344c2.929688 2.929687 2.929688 7.679687 0 10.605469-1.464844 1.464844-3.382812 2.199218-5.300781 2.199218zm0 0" fill="#e3637b"/><path d="m195.664062 242.28125c-1.921874 0-3.839843-.734375-5.304687-2.199219l-8.03125-8.027343c-2.925781-2.929688-2.925781-7.679688.003906-10.605469 2.929688-2.929688 7.675781-2.929688 10.605469 0l8.027344 8.03125c2.929687 2.925781 2.929687 7.675781 0 10.605469-1.464844 1.460937-3.382813 2.195312-5.300782 2.195312zm0 0" fill="#e3637b"/><path d="m474.863281 114.3125c-2.167969-3.53125-6.78125-4.644531-10.3125-2.476562-3.535156 2.164062-4.644531 6.78125-2.480469 10.3125 33.734376 55.046874 36.148438 113.210937 34.582032 142.976562-.367188 6.964844-4.828125 12.976562-11.367188 15.316406l-4.132812 1.476563c-.339844-15.207031-6.402344-29.457031-17.191406-40.25-2.859376-2.855469-5.972657-5.390625-9.316407-7.585938 11.328125-22.371093 7.253907-49.875-10.933593-68.0625-7.089844-7.09375-15.671876-12.027343-24.832032-14.734375-2.765625-14.300781-9.648437-27.265625-20.035156-37.648437-10.441406-10.445313-23.445312-17.320313-37.800781-20.054688-2.699219-9.230469-7.660157-17.890625-14.820313-25.050781-18.1875-18.1875-45.6875-22.261719-68.0625-10.933594-2.191406-3.339844-4.730468-6.457031-7.585937-9.3125-10.71875-10.71875-24.84375-16.769531-39.933594-17.183594l1.398437-3.90625c2.339844-6.539062 8.351563-11.003906 15.316407-11.367187 33.382812-1.746094 118.050781 1.1875 183.082031 66.214844 5.585938 5.589843 10.914062 11.523437 15.828125 17.640625 1.480469 1.84375 3.65625 2.800781 5.851563 2.800781 1.648437 0 3.308593-.539063 4.691406-1.652344 3.226562-2.59375 3.742187-7.3125 1.148437-10.542969-5.253906-6.539062-10.945312-12.878906-16.914062-18.851562-69.289063-69.292969-159.085938-72.453125-194.476563-70.585938-13.019531.683594-24.265625 9.042969-28.648437 21.292969l-3.878907 10.839844c-9.984374 2.605469-19.140624 7.8125-26.628906 15.304687-7.605468 7.605469-12.867187 16.914063-15.4375 27.1875-.011718 0-.019531 0-.03125 0-13.019531.683594-24.265625 9.042969-28.648437 21.292969l-5.417969 15.148438c-.105469-.003907-.207031-.007813-.3125-.007813-10.417969-.144531-19.824219 6.300782-23.34375 16.136719l-111.007812 310.285156c-7.1875 20.097657-2.082032 42.835938 13.011718 57.929688 10.550782 10.550781 24.839844 16.222656 39.351563 16.222656 6.242187 0 12.527343-1.050781 18.574219-3.214844l310.289062-111.003906c9.835938-3.519531 16.320312-12.902344 16.136719-23.347656-.003907-.101563-.003907-.207031-.007813-.308594l15.144532-5.417969c12.25-4.386718 20.609374-15.628906 21.292968-28.652344.007813-.105468.011719-.222656.015625-.328124 10.175781-2.597657 19.398438-7.835938 26.9375-15.371094 7.398438-7.402344 12.570313-16.433594 15.207031-26.277344l11.171876-4c12.25-4.382812 20.609374-15.628906 21.292968-28.648438 1.660156-31.507812-.917968-93.097656-36.765625-151.601562zm-111.441406-4.757812c9.335937 2.691406 17.800781 7.675781 24.816406 14.691406 6.945313 6.945312 11.910157 15.34375 14.621094 24.601562-9.460937-.132812-18.976563 2.007813-27.671875 6.484375-2.800781-3.125-5.71875-6.21875-8.769531-9.269531-3.132813-3.128906-6.304688-6.121094-9.511719-8.988281 4.46875-8.652344 6.617188-18.109375 6.515625-27.519531zm-165.40625-50.660157c17.078125-17.082031 44.871094-17.082031 61.953125 0 3.585938 3.585938 6.496094 7.714844 8.644531 12.273438.941407 1.996093 2.714844 3.476562 4.847657 4.046875 2.132812.566406 4.40625.171875 6.21875-1.089844 17.402343-12.101562 40.925781-9.996094 55.9375 5.015625 12.761718 12.757813 16.191406 31.878906 9.390624 48.007813-56.230468-43.832032-120.234374-51.734376-157.292968-52.015626 2.15625-6.0625 5.640625-11.578124 10.300781-16.238281zm224.011719 280.859375c-.367188 6.960938-4.828125 12.976563-11.367188 15.3125l-10.808594 3.867188c-3.214843-44.613282-18.234374-114.316406-75.109374-171.195313-24.75-24.75-54.261719-43.835937-87.714844-56.730469-3.863282-1.488281-8.203125.433594-9.695313 4.300782-1.488281 3.863281.4375 8.203125 4.300781 9.695312 31.484376 12.136719 59.242188 30.082032 82.5 53.34375 57.828126 57.828125 69.726563 130.03125 71.285157 171.292969.003906.03125.003906.0625.003906.09375.070313 1.878906.121094 3.699219.152344 5.449219.070312 4.007812-2.417969 7.609375-6.191407 8.957031l-310.285156 111.003906c-14.664062 5.25-31.253906 1.523438-42.269531-9.492187-11.011719-11.011719-14.738281-27.601563-9.492187-42.265625l111.003906-310.285157c1.351562-3.777343 4.933594-6.273437 8.960937-6.195312 14.835938.261719 37.964844 1.945312 63.894531 8.464844 4.019532 1.015625 8.09375-1.425782 9.101563-5.441406 1.011719-4.019532-1.425781-8.09375-5.441406-9.105469-16.777344-4.21875-33.972657-6.960938-51.304688-8.195313l3.863281-10.804687c2.339844-6.539063 8.351563-11 15.3125-11.367188 33.386719-1.75 118.050782 1.183594 183.082032 66.214844 65.03125 65.027344 67.972656 149.695313 66.21875 183.082031zm31.324218-25.523437c-4.597656 4.597656-10.03125 8.050781-16.007812 10.214843-.328125-37.164062-8.328125-101.09375-52.207031-157.222656 16.117187-6.765625 35.246093-3.3125 47.96875 9.40625 15.007812 15.007813 17.117187 38.535156 5.015625 55.9375-1.261719 1.8125-1.660156 4.085938-1.089844 6.21875.570312 2.128906 2.046875 3.902344 4.042969 4.84375 4.5625 2.15625 8.691406 5.066406 12.277343 8.648438 17.082032 17.082031 17.082032 44.875 0 61.953125zm0 0"/><path d="m294.511719 295.453125c3.542969-.957031 7.351562.058594 9.941406 2.648437 2.589844 2.585938 3.601563 6.398438 2.644531 9.9375-1.078125 4 1.289063 8.117188 5.289063 9.195313.652343.179687 1.3125.261719 1.957031.261719 3.308594 0 6.332031-2.203125 7.238281-5.546875 2.351563-8.710938-.148437-18.082031-6.523437-24.457031s-15.746094-8.875-24.457032-6.523438c-4 1.078125-6.367187 5.195312-5.285156 9.195312 1.078125 4 5.195313 6.371094 9.195313 5.289063zm0 0"/><path d="m200.535156 190.898438c-4 1.082031-6.367187 5.199218-5.289062 9.195312 1.082031 4 5.195312 6.371094 9.195312 5.289062 3.542969-.960937 7.351563.058594 9.941406 2.648438 2.589844 2.585938 3.605469 6.398438 2.648438 9.941406-1.082031 3.996094 1.285156 8.113282 5.285156 9.191406.65625.179688 1.3125.261719 1.960938.261719 3.304687 0 6.332031-2.203125 7.234375-5.546875 2.351562-8.710937-.148438-18.082031-6.523438-24.457031-6.375-6.371094-15.742187-8.871094-24.453125-6.523437zm0 0"/><path d="m225.855469 286.628906c4.664062 4.664063 10.867187 7.230469 17.464843 7.230469 6.597657 0 12.796876-2.566406 17.464844-7.234375l9.121094-9.121094c2.929688-2.925781 2.929688-7.675781 0-10.601562l-24.320312-24.324219c-1.40625-1.40625-3.316407-2.199219-5.304688-2.199219s-3.898438.792969-5.304688 2.199219l-9.121093 9.121094c-9.628907 9.628906-9.628907 25.296875 0 34.929687zm10.605469-24.324218 3.820312-3.816407 13.714844 13.714844-3.816406 3.816406c-1.832032 1.832031-4.269532 2.84375-6.859376 2.84375-2.589843 0-5.027343-1.011719-6.855468-2.84375-3.785156-3.78125-3.785156-9.933593-.003906-13.714843zm0 0"/></svg>