<?xml version="1.0" encoding="UTF-8" standalone="no"?>
<!-- Generator: Adobe Illustrator 16.0.0, SVG Export Plug-In . SVG Version: 6.00 Build 0)  -->

<svg
   xmlns:dc="http://purl.org/dc/elements/1.1/"
   xmlns:cc="http://creativecommons.org/ns#"
   xmlns:rdf="http://www.w3.org/1999/02/22-rdf-syntax-ns#"
   xmlns:svg="http://www.w3.org/2000/svg"
   xmlns="http://www.w3.org/2000/svg"
   xmlns:xlink="http://www.w3.org/1999/xlink"
   xmlns:sodipodi="http://sodipodi.sourceforge.net/DTD/sodipodi-0.dtd"
   xmlns:inkscape="http://www.inkscape.org/namespaces/inkscape"
   version="1.1"
   id="Ebene_1"
   x="0px"
   y="0px"
   width="105.325px"
   height="88.926px"
   viewBox="0 0 105.325 88.926"
   enable-background="new 0 0 105.325 88.926"
   xml:space="preserve"
   sodipodi:docname="Logo.svg"
   inkscape:version="0.92.4 (5da689c313, 2019-01-14)"><metadata
   id="metadata37"><rdf:RDF><cc:Work
       rdf:about=""><dc:format>image/svg+xml</dc:format><dc:type
         rdf:resource="http://purl.org/dc/dcmitype/StillImage" /></cc:Work></rdf:RDF></metadata><defs
   id="defs35">
	
	

		<defs
   id="defs11">
			<rect
   id="SVGID_1_"
   width="105.325"
   height="88.926003"
   x="0"
   y="0" />
		</defs>
		<clipPath
   id="SVGID_2_">
			<use
   xlink:href="#SVGID_1_"
   overflow="visible"
   id="use13"
   style="overflow:visible"
   x="0"
   y="0"
   width="100%"
   height="100%" />
		</clipPath>
		
	
		<defs
   id="defs21">
			<rect
   id="SVGID_3_"
   width="105.325"
   height="88.926003"
   x="0"
   y="0" />
		</defs>
		<clipPath
   id="SVGID_4_">
			<use
   xlink:href="#SVGID_3_"
   overflow="visible"
   id="use23"
   style="overflow:visible"
   x="0"
   y="0"
   width="100%"
   height="100%" />
		</clipPath>
		
	</defs><sodipodi:namedview
   pagecolor="#ffffff"
   bordercolor="#666666"
   borderopacity="1"
   objecttolerance="10"
   gridtolerance="10"
   guidetolerance="10"
   inkscape:pageopacity="0"
   inkscape:pageshadow="2"
   inkscape:window-width="1920"
   inkscape:window-height="1017"
   id="namedview33"
   showgrid="false"
   inkscape:zoom="4.7680092"
   inkscape:cx="112.45074"
   inkscape:cy="23.995731"
   inkscape:window-x="-8"
   inkscape:window-y="-8"
   inkscape:window-maximized="1"
   inkscape:current-layer="Ebene_1" />
<g
   id="g868"
   inkscape:export-xdpi="233.33"
   inkscape:export-ydpi="233.33"><path
     style="fill:#00506a;fill-opacity:1"
     inkscape:connector-curvature="0"
     id="path16"
     d="M 0.025,60.934 H 0 v 1.017 L 13.111,57.059 V 17.42 c 0,-3.063 2.757,-5.551 6.138,-5.551 h 66.864 c 3.382,0 6.125,2.488 6.125,5.551 v 39.62 l 13.087,4.884 V 17.42 C 105.325,7.815 96.706,0 86.113,0 H 19.249 C 8.645,0 0.025,7.815 0.025,17.42 Z"
     clip-path="url(#SVGID_2_)" /><path
     style="fill:#38bcd8"
     inkscape:connector-curvature="0"
     id="path26"
     d="m 91.154,66.871 c -0.487,0.754 -1.086,1.393 -1.916,1.771 -0.929,0.424 -2.514,0.643 -4.733,0.66 -2.233,0.014 -6.48,0.125 -12.762,0.344 -3.798,0.138 -6.837,0.506 -9.119,1.104 -2.283,0.6 -4.218,1.396 -5.802,2.396 -1.596,0.998 -2.993,2.27 -4.19,3.83 C 50.872,74.955 49.164,73.482 47.48,72.552 45.072,71.275 42.003,70.4 38.285,69.933 35.722,69.632 30.102,69.414 21.407,69.279 18.675,69.254 16.848,69.066 15.93,68.73 15.064,68.405 14.403,67.806 13.916,66.989 L 1.234,71.723 c 0.773,1.885 2.034,3.5 3.83,4.805 1.846,1.334 4.104,2.238 6.787,2.719 2.682,0.475 6.911,0.711 12.68,0.711 6.68,0 11.046,0.212 13.092,0.618 2.919,0.598 5.015,1.515 6.263,2.737 1.272,1.234 1.983,3.1 2.17,5.612 h 13.147 c 0.139,-1.993 0.543,-3.491 1.197,-4.503 0.661,-1.01 1.76,-1.877 3.319,-2.602 1.546,-0.723 3.491,-1.234 5.832,-1.533 1.753,-0.219 4.784,-0.331 9.088,-0.331 7.085,0 12.032,-0.235 14.845,-0.711 2.807,-0.479 5.064,-1.359 6.762,-2.646 1.521,-1.146 2.713,-2.855 3.666,-4.972 z"
     clip-path="url(#SVGID_4_)" /></g>
</svg>