<svg xmlns="http://www.w3.org/2000/svg" viewBox="0 0 511.998 511"><path d="M435.742 76.742C368.93 9.934 282.734 6.46 246.96 8.34c-9.953.523-18.625 6.945-21.984 16.332l-124.22 347.234a31.14 31.14 0 0 0 7.301 32.516 31.16 31.16 0 0 0 32.52 7.305l347.234-124.223c9.383-3.36 15.805-12.027 16.332-21.98 1.88-35.773-1.594-121.973-68.402-188.78zm0 0" fill="#f5b96e"/><path d="M125.758 396.9L249.98 49.676c3.36-9.387 12.027-15.81 21.984-16.332 33.492-1.762 111.188 1.176 175.79 56.387a226.9 226.9 0 0 0-12.012-12.988C368.93 9.93 282.734 6.46 246.96 8.34c-9.953.523-18.625 6.945-21.984 16.332l-124.22 347.234a31.14 31.14 0 0 0 7.301 32.516c4.563 4.56 10.313 7.477 16.4 8.594-.97-5.29-.594-10.84 1.29-16.105zm0 0" fill="#e8af68"/><path d="M393.54 118.94c-25.578-25.574-67.047-25.574-92.625 0s-25.574 67.047 0 92.625 67.047 25.574 92.625 0 25.574-67.047 0-92.625zm0 0" fill="#e3637b"/><path d="M324.734 142.758c21.46-21.457 54.102-24.902 79.164-10.355a65.62 65.62 0 0 0-10.355-13.461c-25.578-25.578-67.047-25.578-92.625 0s-25.574 67.047 0 92.62a65.45 65.45 0 0 0 13.461 10.355c-14.547-25.06-11.102-57.7 10.355-79.16zm0 0" fill="#d75e74"/><path d="M340.922 73.836C323.086 56.004 295.4 54.06 275.4 67.97A51.3 51.3 0 0 0 265.27 53.59c-20.035-20.035-52.52-20.035-72.56 0s-20.035 52.523 0 72.563c17.836 17.832 45.523 19.777 65.523 5.867a51.3 51.3 0 0 0 10.129 14.379c20.035 20.035 52.52 20.035 72.56 0s20.035-52.523 0-72.562zm117.734 173.14a51.22 51.22 0 0 0-14.379-10.129c13.9-20 11.965-47.687-5.867-65.523-20.04-20.035-52.523-20.035-72.56 0s-20.04 52.523 0 72.56c4.3 4.3 9.176 7.672 14.375 10.125-13.9 20.004-11.965 47.7 5.87 65.527 20.035 20.035 52.52 20.035 72.56 0s20.035-52.523 0-72.56zm0 0" fill="#f9efd1"/><path d="M361.113 151.367c-66.81-66.81-153.004-70.28-188.777-68.402-9.953.523-18.625 6.95-21.984 16.332L26.133 446.53a31.15 31.15 0 0 0 7.301 32.52 31.14 31.14 0 0 0 32.516 7.301L413.187 362.13c9.383-3.355 15.805-12.027 16.328-21.98 1.88-35.773-1.6-121.97-68.402-188.78zm0 0" fill="#f5b96e"/><path d="M51.133 471.535L175.355 124.3c3.36-9.387 12.027-15.81 21.984-16.332 33.492-1.762 111.187 1.172 175.79 56.39-3.758-4.398-7.758-8.734-12.012-12.992-66.812-66.812-153.008-70.28-188.78-68.402-9.953.523-18.625 6.945-21.984 16.332L26.133 446.53a31.14 31.14 0 0 0 7.301 32.516c4.563 4.563 10.313 7.477 16.4 8.594-.973-5.29-.594-10.84 1.29-16.105zm0 0" fill="#e8af68"/><path d="M21.527 490.957c-13.055-13.05-17.473-32.715-11.254-50.098l111.004-310.285a16.85 16.85 0 0 1 16.156-11.168c41.2.73 119.63 11.262 182.004 73.637s72.9 140.81 73.637 182.008a16.84 16.84 0 0 1-11.164 16.156l-310.29 111c-17.38 6.22-37.043 1.805-50.094-11.25zm0 0" fill="#c2e3ee"/><path d="M35.277 465.863L146.28 155.578a16.85 16.85 0 0 1 16.152-11.168c38.395.68 109.113 9.88 169.043 61.598a240.44 240.44 0 0 0-12.039-12.965c-62.375-62.375-140.805-72.906-182.004-73.637a16.85 16.85 0 0 0-16.156 11.168L10.273 440.86c-6.215 17.38-1.8 37.047 11.254 50.098 4.348 4.348 9.44 7.715 14.93 10.07-4.72-10.98-5.324-23.574-1.18-35.164zm0 0" fill="#add9e8"/><path d="M212.62 451.766L60.72 299.86l-30.156 84.29 97.773 97.77zm0 0" fill="#e3637b"/><path d="M60.72 299.86l-30.156 84.29 25.004 25 30.152-84.285zm0 0" fill="#d75e74"/><path d="M231.16 281.324a17.2 17.2 0 0 1 0-24.324l9.12-9.12 24.32 24.324-9.12 9.12c-6.715 6.715-17.605 6.715-24.32 0zm0 0" fill="#4a5359"/><path d="M285.734 332.352c-1.922 0-3.84-.734-5.305-2.2l-8.03-8.03c-2.926-2.926-2.926-7.676 0-10.605a7.5 7.5 0 0 1 10.605.004l8.03 8.027a7.5 7.5 0 0 1 0 10.605c-1.465 1.465-3.383 2.2-5.3 2.2zm-90.07-90.072c-1.922 0-3.84-.734-5.305-2.2l-8.03-8.027a7.5 7.5 0 1 1 10.609-10.605l8.027 8.03a7.5 7.5 0 0 1 0 10.605 7.49 7.49 0 0 1-5.3 2.195zm0 0" fill="#e3637b"/><path d="M474.863 114.313a7.5 7.5 0 1 0-12.792 7.836c33.734 55.047 36.148 113.2 34.582 142.977-.367 6.965-4.828 12.977-11.367 15.316l-4.133 1.477c-.34-15.207-6.402-29.457-17.2-40.25a58.99 58.99 0 0 0-9.316-7.586c11.328-22.37 7.254-49.875-10.934-68.062-7.1-7.094-15.672-12.027-24.832-14.734-2.766-14.3-9.648-27.266-20.035-37.648-10.44-10.445-23.445-17.32-37.8-20.055-2.7-9.23-7.66-17.9-14.82-25.05C328.04 50.347 300.54 46.272 278.164 57.6c-2.2-3.34-4.73-6.457-7.586-9.312-10.72-10.72-24.844-16.77-39.934-17.184l1.398-3.906c2.34-6.54 8.352-11.004 15.316-11.367 33.383-1.746 118.05 1.187 183.082 66.215 5.586 5.6 10.914 11.523 15.828 17.64a7.48 7.48 0 0 0 5.852 2.8c1.648 0 3.3-.54 4.7-1.652a7.5 7.5 0 0 0 1.148-10.543c-5.254-6.54-10.945-12.88-16.914-18.852C371.754 2.145 281.957-1.016 246.566.852c-13.02.684-24.266 9.043-28.648 21.293l-3.88 10.84c-9.984 2.605-19.14 7.813-26.63 15.305-7.605 7.605-12.867 16.914-15.437 27.188h-.03c-13.02.684-24.266 9.043-28.648 21.293l-5.418 15.148-.312-.008c-10.418-.145-19.824 6.3-23.344 16.137L3.2 438.332c-7.187 20.098-2.082 42.836 13.012 57.93 10.55 10.55 24.84 16.223 39.352 16.223 6.242 0 12.527-1.05 18.574-3.215l310.3-111.004a24.33 24.33 0 0 0 16.137-23.348l-.008-.3 15.145-5.418c12.25-4.387 20.6-15.63 21.293-28.652.008-.105.012-.223.016-.328 10.176-2.598 19.398-7.836 26.938-15.37 7.398-7.402 12.57-16.434 15.207-26.277l11.172-4c12.25-4.383 20.6-15.63 21.293-28.648 1.66-31.508-.918-93.098-36.766-151.602zm-111.44-4.758c9.336 2.7 17.8 7.676 24.816 14.7 6.945 6.945 11.9 15.344 14.62 24.602a58.62 58.62 0 0 0-27.672 6.484c-2.8-3.125-5.72-6.22-8.77-9.27a236.66 236.66 0 0 0-9.512-8.988c4.47-8.652 6.617-18.1 6.516-27.52zm-165.406-50.66c17.078-17.082 44.87-17.082 61.953 0 3.586 3.586 6.496 7.715 8.645 12.273a7.5 7.5 0 0 0 4.848 4.047 7.48 7.48 0 0 0 6.22-1.1c17.402-12.102 40.926-9.996 55.938 5.016 12.762 12.758 16.2 31.88 9.4 48.008-56.23-43.832-120.234-51.734-157.293-52.016 2.156-6.062 5.64-11.578 10.3-16.238zm224.012 280.86c-.367 6.96-4.828 12.977-11.367 15.313l-10.8 3.867c-3.215-44.613-18.234-114.316-75.1-171.195-24.75-24.75-54.262-43.836-87.715-56.73-3.863-1.488-8.203.434-9.695 4.3s.438 8.203 4.3 9.695c31.484 12.137 59.242 30.082 82.5 53.344 57.828 57.828 69.727 130.03 71.285 171.293a.73.73 0 0 1 .004.094l.152 5.45a9.33 9.33 0 0 1-6.191 8.957L69.098 495.145c-14.664 5.25-31.254 1.523-42.27-9.492S12.1 458.05 17.336 443.387L128.34 133.102a9.31 9.31 0 0 1 8.961-6.195c14.836.262 37.965 1.945 63.895 8.465 4.02 1.016 8.094-1.426 9.102-5.44a7.5 7.5 0 0 0-5.441-9.105c-16.777-4.22-33.973-6.96-51.305-8.195l3.863-10.805c2.34-6.54 8.352-11 15.313-11.367 33.387-1.75 118.05 1.184 183.082 66.215s67.973 149.695 66.22 183.082zm31.324-25.523c-4.598 4.598-10.03 8.05-16.008 10.215-.328-37.164-8.328-101.094-52.207-157.223 16.117-6.766 35.246-3.312 47.97 9.406 15.008 15.008 17.117 38.535 5.016 55.938-1.262 1.813-1.66 4.086-1.1 6.22a7.5 7.5 0 0 0 4.043 4.844 43.83 43.83 0 0 1 12.277 8.648c17.082 17.082 17.082 44.875 0 61.953zm-158.84-18.78c3.543-.957 7.352.06 9.94 2.648s3.602 6.398 2.645 9.938c-1.078 4 1.3 8.117 5.3 9.195a7.37 7.37 0 0 0 1.957.262c3.3 0 6.332-2.203 7.238-5.547 2.352-8.7-.148-18.082-6.523-24.457s-15.746-8.875-24.457-6.523c-4 1.078-6.367 5.195-5.285 9.195a7.5 7.5 0 0 0 9.195 5.289zm-93.977-104.555a7.51 7.51 0 0 0-5.29 9.195 7.5 7.5 0 0 0 9.195 5.289 10.29 10.29 0 0 1 9.94 2.648c2.588 2.588 3.605 6.398 2.648 9.94-1.082 3.996 1.285 8.113 5.285 9.2a7.4 7.4 0 0 0 1.961.262c3.305 0 6.332-2.203 7.234-5.547 2.352-8.7-.148-18.082-6.523-24.457a25.35 25.35 0 0 0-24.453-6.523zm25.32 95.732c4.664 4.664 10.867 7.23 17.465 7.23s12.797-2.566 17.465-7.234l9.12-9.12c2.93-2.926 2.93-7.676 0-10.602l-24.32-24.324a7.51 7.51 0 0 0-10.609 0l-9.12 9.12c-9.63 9.63-9.63 25.297 0 34.93zm10.605-24.324l3.82-3.816 13.715 13.715-3.816 3.816a9.64 9.64 0 0 1-6.859 2.844c-2.6 0-5.027-1.012-6.855-2.844a9.71 9.71 0 0 1-.004-13.715zm0 0"/></svg>